<svg id="instagram" xmlns="http://www.w3.org/2000/svg" width="26.889" height="26.89" viewBox="0 0 26.889 26.89">
  <path id="Path_1" data-name="Path 1" d="M12.745,5.838a6.9,6.9,0,1,0,6.9,6.9,6.9,6.9,0,0,0-6.9-6.9Zm0,11.378a4.478,4.478,0,1,1,4.478-4.478A4.477,4.477,0,0,1,12.745,17.216Z" transform="translate(0.704 0.702)" fill="#413412"/>
  <path id="Path_2" data-name="Path 2" d="M18.988.085c-2.474-.115-8.6-.11-11.077,0A8.035,8.035,0,0,0,2.269,2.26C-.317,4.846.013,8.33.013,13.44c0,5.23-.291,8.634,2.255,11.18,2.6,2.595,6.131,2.255,11.18,2.255,5.181,0,6.969,0,8.8-.706,2.491-.967,4.371-3.193,4.554-7.192.117-2.475.11-8.6,0-11.077C26.582,3.181,24.049.318,18.988.085ZM22.9,22.91c-1.7,1.7-4.047,1.544-9.487,1.544-5.6,0-7.848.083-9.487-1.561C2.041,21.014,2.383,18,2.383,13.422c0-6.19-.635-10.648,5.577-10.966,1.427-.05,1.848-.067,5.441-.067l.05.034c5.971,0,10.655-.625,10.936,5.586.064,1.417.078,1.843.078,5.431C24.465,18.976,24.57,21.236,22.9,22.91Z" transform="translate(0 -0.001)" fill="#413412"/>
  <circle id="Ellipse_1" data-name="Ellipse 1" cx="1.612" cy="1.612" r="1.612" transform="translate(19.01 4.656)" fill="#413412"/>
</svg>
